# xmcd
#
# Track frame offsets: 
#        187
#        17222
#        33125
#        50452
#        63747
#        77502
#        91452
#        101267
#        115050
#        124017
#        141900
#        152545
#        165092
#        185367
#        211945
#        235897
#
# Disc length: 3392 seconds
#
# Revision: 2
# Processed by: cddbd v1.5.2PL0 Copyright (c) Steve Scherf et al.
# Submitted via: ExactAudioCopy v0.99pb3
#
DISCID=c20d3e10
DTITLE=Howlin' Wolf - The London Howlin' Wolf Sessions
DYEAR=1974
DGENRE=Blues
TTITLE0=Rockin' Daddy
TTITLE1=I Ain't Superstitious
TTITLE2=Sittin' On Top of the World
TTITLE3=Worried About My Baby
TTITLE4=What A Woman!
TTITLE5=Poor Boy
TTITLE6=Built For Comfort
TTITLE7=Who's Been Talking?
TTITLE8=The Red Rooster (false start)
TTITLE9=The Red Rooster
TTITLE10=Do the Do
TTITLE11=Highway 49
TTITLE12=Wang Dang Doodle
TTITLE13=Goin' Down Slow
TTITLE14=Killing Floor
TTITLE15=I Want To Have A Word With You
EXTD=
EXTT0=
EXTT1=
EXTT2=
EXTT3=
EXTT4=
EXTT5=
EXTT6=
EXTT7=
EXTT8=
EXTT9=
EXTT10=
EXTT11=
EXTT12=
EXTT13=
EXTT14=
EXTT15=
PLAYORDER=
